<?xml version="1.0" encoding="UTF-8" standalone="no"?>
<!-- Created with Inkscape (http://www.inkscape.org/) -->

<svg
   width="793.70081"
   height="1122.5197"
   viewBox="0 0 210 296.99999"
   version="1.1"
   id="svg5"
   xmlns="http://www.w3.org/2000/svg"
   xmlns:svg="http://www.w3.org/2000/svg">
  <defs
     id="defs2">
    <rect
       x="58.857933"
       y="68.947868"
       width="1088.031"
       height="507.85989"
       id="rect236" />
  </defs>
  <g
     id="layer1">
    <text
       xml:space="preserve"
       transform="matrix(0.26458333,0,0,0.26458333,-109.45474,-14.238014)"
       id="text234"
       style="font-size:96px;font-family:Friday13;-inkscape-font-specification:'Friday13, Normal';direction:rtl;white-space:pre;shape-inside:url(#rect236);display:inline;fill:#61c9a8;fill-opacity:1;stroke-width:6.94"><tspan
         x="644.04059"
         y="159.20814"
         id="tspan2910"><tspan
           style="font-family:Testimonia;-inkscape-font-specification:'Testimonia, Normal'"
           id="tspan2906">Click Here to</tspan><tspan
           dx="-440.44794"
           style="font-family:Testimonia;-inkscape-font-specification:'Testimonia, Normal'"
           id="tspan2908"> 
</tspan></tspan><tspan
         x="444.74438"
         y="283.29815"
         id="tspan2914"><tspan
           style="font-family:Testimonia;-inkscape-font-specification:'Testimonia, Normal'"
           id="tspan2912">Create a new Folder</tspan></tspan></text>
    <path
       style="fill:#61c9a8;fill-opacity:1;stroke-width:1.83621"
       id="path836"
       d="m 99.094918,65.900437 c -1.937011,2.503561 -3.98368,4.919054 -5.991018,7.366053 -3.348511,4.11276 -6.520326,8.383005 -9.297292,12.90588 -0.603594,0.98308 -1.168413,1.989449 -1.752618,2.984174 -1.952493,4.250534 -3.904591,8.992222 -2.968546,13.787136 0.57399,2.94026 1.36542,3.54378 3.03479,5.97065 1.03836,0.87641 2.007613,1.84195 3.115077,2.62922 1.22415,0.87022 2.534428,1.61779 3.857966,2.32777 2.231834,1.19722 4.481375,2.37066 6.800085,3.38948 1.510546,0.66372 3.097237,1.14107 4.667018,1.64907 4.14684,1.34196 5.43886,1.57058 9.66395,2.59326 6.47577,1.37933 13.02908,2.3992 19.601,3.1973 1.14335,0.13885 9.40016,1.01557 10.33937,1.11581 9.68935,1.00656 19.36661,2.12394 29.05089,3.17749 3.40515,0.36351 1.81274,0.19695 4.77697,0.50216 0,0 -2.82214,-2.08621 -2.82214,-2.08621 v 0 c -2.7837,-0.17021 -1.28472,-0.0724 -4.49652,-0.29961 -9.56596,-0.7694 -19.10448,-1.81983 -28.64189,-2.87995 -10.04283,-1.17618 -20.13419,-2.19884 -30.01583,-4.41313 -4.17444,-1.01759 -5.55231,-1.26585 -9.647895,-2.61782 -1.579131,-0.52128 -3.120067,-1.15243 -4.690795,-1.69851 -0.616815,-0.21444 -1.286589,-0.2901 -1.870461,-0.58257 -3.490767,-1.74862 -3.899265,-2.34921 -6.7901,-4.74401 -1.657141,-2.3309 -2.466157,-2.95949 -3.087971,-5.80599 -0.753311,-3.44847 0.07529,-7.070581 1.315855,-10.287859 0.441569,-1.145164 1.025316,-2.230305 1.537973,-3.345458 0.582345,-0.990923 1.144429,-1.994032 1.747033,-2.972763 2.781766,-4.518051 6.009291,-8.745273 9.499759,-12.736668 2.082551,-2.404049 4.174212,-4.812914 6.409062,-7.075869 0,0 -3.343722,-2.049036 -3.343722,-2.049036 z" />
    <path
       style="fill:#61c9a8;fill-opacity:1;stroke-width:1.83621"
       id="path846"
       d="m 164.98303,139.47362 c 3.95032,-0.86718 7.78987,-2.12448 11.56967,-3.5486 3.50671,-1.33743 6.87599,-3.00612 10.2151,-4.71233 0.42516,-0.27108 2.35989,-0.92615 2.30864,-1.63657 -0.0419,-0.5814 -0.58573,-0.83125 -0.9722,-1.13971 -2.87815,-1.87168 -5.78181,-3.70241 -8.52965,-5.76563 -0.76088,-0.57131 -1.50116,-1.16956 -2.25175,-1.75435 -3.51728,-2.77847 -6.78483,-5.84584 -10.12505,-8.82812 -1.36132,-1.1915 -0.72146,-0.62186 -1.92247,-1.70566 0,0 -3.43737,-1.4001 -3.43737,-1.4001 v 0 c 1.28336,1.12354 0.60201,0.5362 2.04719,1.75838 3.45014,2.99105 6.78416,6.11831 10.37252,8.949 3.3232,2.61947 6.73999,5.1021 10.32727,7.3504 0.22576,0.15144 0.44689,0.31002 0.67727,0.45432 0.12088,0.0757 0.28485,0.095 0.37552,0.20513 0.0502,0.0609 0.0328,0.17141 -0.0119,0.23645 -0.40675,0.59207 -1.41142,0.83837 -1.94312,1.25919 -3.21253,1.80745 -6.49747,3.50818 -9.93985,4.8383 -3.86984,1.44358 -7.82623,2.7523 -11.95307,3.20653 0,0 3.1932,2.23337 3.1932,2.23337 z" />
  </g>
</svg>
